<?xml version="1.0" encoding="UTF-8"?>
<svg version="1.1" viewBox="0 0 1338 1338" xmlns="http://www.w3.org/2000/svg">
<path transform="translate(0)" d="m0 0h1338v1338h-1338v-1338z" fill="none"/>
<path transform="translate(865.2 3.6289)" d="m0 0c5.5751 2.3726 8.9267 6.1174 11.797 11.371 2.9902 8.3797 3.4747 16.785 3.5959 25.612 0.029715 2.1181 0.077004 4.2352 0.12921 6.3528 0.068045 2.7739 0.13188 5.5479 0.19092 8.322 0.4602 20.737 0.4602 20.737 10.084 38.713 5.8286 5.2987 10.442 5.5003 18.145 5.3555 5.9396-0.54762 10.334-2.7423 14.465-7.0234 1.3906-1.332 1.3906-1.332 3.3906-1.332 0.26426-0.56719 0.52852-1.1344 0.80078-1.7188 1.282-2.4387 2.765-4.5546 4.3867-6.7812 5.9801-8.4954 10.838-17.361 15.25-26.75 0.37995-0.8084 0.7599-1.6168 1.1514-2.4497 1.5012-3.2033 3.0003-6.4074 4.479-9.6211 7.639-16.533 7.639-16.533 15.932-20.679 7.1318-0.73239 13.142-0.37093 19 4 4.6052 4.236 7.5713 8.5076 8.1797 14.883 0.29938 9.0148-1.2842 18.278-3.646 26.956-3.3128 13.418-6.5657 33.082 0.028809 45.849 3.6581 5.206 8.4099 10.009 14.438 12.312 13.137 1.1055 22.636-0.53471 33.242-8.6445 7.4626-6.3739 13.346-14.033 19.201-21.844 3.5282-4.6384 7.265-8.8663 12.556-11.512 13.13-1.3612 13.13-1.3612 18.625 2.625 5.0765 4.5982 8.0786 9.3123 8.75 16.25-0.13665 6.6011-2.7075 12.187-5.375 18.125-0.57186 1.2829-0.57186 1.2829-1.1553 2.5918-5.6507 12.549-11.696 24.311-19.845 35.408-0.48114 0.66612-0.96229 1.3322-1.458 2.0186-6.0916 8.4185-12.433 16.391-19.542 23.981-0.97881 1.0891-1.9552 2.1804-2.9297 3.2734-1.0026 1.1172-2.0052 2.2344-3.0078 3.3516-0.47317 0.53399-0.94633 1.068-1.4338 1.6182-1.1687 1.2904-2.3944 2.5289-3.6287 3.7568h-2c-0.2359 0.57879-0.4718 1.1576-0.71484 1.7539-2.7591 4.8221-7.9516 7.8778-12.285 11.246-0.62922 0.4921-1.2584 0.9842-1.9067 1.4912-4.9888 3.8933-10.026 7.7184-15.093 11.509-0.67805 0.50966-1.3561 1.0193-2.0547 1.5444-16.825 12.557-35.157 22.267-54.008 31.393-0.64246 0.3112-1.2849 0.6224-1.9468 0.94302-14.446 6.9722-29.009 13.043-44.241 18.057-1.1792 0.38977-1.1792 0.38977-2.3822 0.78741-55.023 18.141-112.94 25.339-170.63 28.802-6.5046 0.4056-12.876 1.225-19.305 2.2852-1.0763 0.17451-2.1526 0.34901-3.2615 0.52881-6.8999 1.162-13.538 2.6068-20.211 4.729-2.9648 0.92969-2.9648 0.92969-6.6797 1.793-30.736 7.5611-57.87 27.588-77.66 51.762-0.83048 1.0125-0.83048 1.0125-1.6777 2.0454-2.4736 3.1156-4.1727 5.3637-4.9473 9.3296 0.54656 0.091523 1.0931 0.18305 1.6562 0.27734 4.0189 1.2392 7.2388 3.8722 10.688 6.2266 2.729 1.8233 2.729 1.8233 6.6562 1.4961 2.1977-2.1956 2.1977-2.1956 4.25-5.0625 3.9049-4.9699 7.8114-9.0207 12.75-12.938l2.8281-2.2969c35.34-28.27 74.052-34.098 118.17-33.703-3.2068 27.532-21.151 54.438-42.285 71.887-18.658 13.861-43.473 21.553-66.715 21.113 3.7129 4.5483 7.531 8.4458 11.992 12.254 5.8548 5.0917 11.003 10.832 16.008 16.746 0.68965 0.81211 1.3793 1.6242 2.0898 2.4609 6.0408 7.2404 11.545 14.795 16.91 22.539 0.44682 0.63696 0.89364 1.2739 1.354 1.9302 23.314 33.347 41.11 70.472 56.962 107.83 11.522 27.138 23.221 53.889 44.039 75.269 0.57355 0.59055 1.1471 1.1811 1.738 1.7896 0.5124 0.51836 1.0248 1.0367 1.5527 1.5708 1.3535 1.6089 1.3535 1.6089 2.4177 3.7432 1.2237 2.4398 2.4898 2.7486 4.9358 3.8657 1.3461 1.1277 2.6558 2.2995 3.9375 3.5 16.202 14.535 34.779 24.86 54.049 34.812 5.9309 3.0741 11.73 6.3451 17.513 9.6875 6.7019 3.8713 13.447 7.6141 20.312 11.188 7.7067 4.0117 15.291 8.1967 22.845 12.489 2.6785 1.5134 5.3655 3.0112 8.0537 4.5073 13.605 7.5756 27.098 15.321 40.529 23.2 4.1422 2.4261 8.2935 4.8362 12.448 7.2417 0.76482 0.44344 1.5296 0.88688 2.3176 1.3438 3.963 2.2935 7.936 4.5675 11.925 6.8164 17.749 10.024 35.04 20.777 52.294 31.627 5.2557 3.2923 10.576 6.4731 15.902 9.6501 6.7753 4.0456 13.467 8.1766 20.082 12.48 2.9208 1.9002 5.8594 3.7707 8.8047 5.6328 11.956 7.5602 23.784 15.286 35.526 23.173 2.3311 1.5629 4.6669 3.1184 7.0054 4.6704 18.972 12.592 37.821 25.377 56.266 38.734 6.5538 4.7385 13.146 9.2529 20.191 13.246-1.5269 4.1779-4.1671 5.7358-7.8125 8.125-5.1486 3.4405-10.087 7.056-14.969 10.871-4.5535 3.5356-9.2156 6.903-13.906 10.254-6.2661 4.4812-12.389 9.1048-18.438 13.875-6.1902 4.8796-12.508 9.4407-19.05 13.835-4.6032 3.1216-8.9571 6.4593-13.263 9.9778-5.8738 4.7998-11.93 9.2314-18.156 13.562-4.8809 3.4017-9.6661 6.9056-14.406 10.5-5.545 4.2037-11.17 8.2655-16.875 12.25-5.2443 3.6676-10.326 7.4287-15.273 11.492-4.0367 3.1962-8.1964 6.218-12.352 9.2578-5.7452 4.2062-11.415 8.4557-16.934 12.957-3.3837 2.6936-6.8485 5.2717-10.316 7.8555-5.1382 3.8295-10.227 7.7079-15.25 11.688-11.954 9.4528-24.243 18.438-36.613 27.336-4.6844 3.3719-9.3354 6.788-13.982 10.211-3.5473 2.6077-7.1191 5.1758-10.715 7.7156-5.3108 3.7517-10.486 7.6129-15.564 11.675-4.8782 3.901-9.8809 7.5131-15.062 11-5.9734 4.0271-11.623 8.3126-17.202 12.866-5.8295 4.7346-11.858 9.1727-17.922 13.601-5.84 4.2687-11.584 8.6406-17.274 13.107-2.4768 1.8485-4.9842 3.4534-7.6641 4.9883-1.0373-26.364 2.6097-54.617 10.152-79.965 1.5075-5.398 2.7121-10.875 3.9587-16.338 1.3255-5.6956 2.9538-11.181 4.8889-16.697 0.63426-1.8528 1.2684-3.7057 1.9023-5.5586 0.67776-1.9599 1.3561-3.9195 2.0352-5.8789 0.33451-0.9726 0.66902-1.9452 1.0137-2.9473 2.1775-6.2808 4.5057-12.473 7.0488-18.615 0.46152-1.1148 0.46152-1.1148 0.93237-2.2522 8.3672-19.875 18.907-38.939 31.068-56.748 0.43458-0.64276 0.86915-1.2855 1.3169-1.9478 7.6113-11.217 15.902-21.732 24.683-32.052 0.57992-0.68433 1.1598-1.3687 1.7573-2.0737 14.378-16.93 14.378-16.93 19.243-20.926h2v-2c1.4797-1.4695 1.4797-1.4695 3.5195-3.168 2.8418-2.4157 5.6137-4.8624 8.3047-7.4453 8.0501-7.7141 16.213-14.758 25.176-21.387 2.3619-1.8026 4.7121-3.62 7.0625-5.4375 3.2985-2.5401 6.6002-5.0735 9.9375-7.5625-4.8693-10.747-15.168-19.533-23.191-27.973-2.9723-3.1293-5.8811-6.2998-8.7461-9.5273-3.5077-3.942-7.197-7.6551-10.953-11.359-1.9175-1.9459-3.7114-3.9387-5.4844-6.0156-6.3043-7.3282-13.27-14.139-20.629-20.402-1.4072-1.2145-2.788-2.4599-4.1484-3.7266-7.4894-6.966-15.585-12.992-23.848-18.996-0.68514-0.49935-1.3703-0.9987-2.0762-1.5132-18.994-13.788-38.872-26.091-59.924-36.487v-2c-0.70898-0.11215-1.418-0.2243-2.1484-0.33984-4.0719-0.94268-7.5798-2.789-11.328-4.6016-2.5284-1.252-2.5284-1.252-5.5234-1.0586 4.8549 4.956 9.7684 9.7381 15.035 14.254 2.6986 2.3982 5.208 4.9622 7.7148 7.5586 1.8572 1.8056 3.7439 3.4751 5.7124 5.1543 5.3625 4.6811 10.364 9.715 15.389 14.752 1.0278 1.0271 2.0557 2.0541 3.0838 3.0809 2.1413 2.1399 4.2809 4.2815 6.4191 6.4244 2.7243 2.73 5.453 5.4554 8.1831 8.1795 2.1192 2.1156 4.236 4.2335 6.3521 6.3522 1.0047 1.0053 2.0101 2.0099 3.0162 3.0138 5.2591 5.2495 10.302 10.553 15.094 16.23l2.4375 1.9375c2.1572 1.7363 3.6725 3.2822 5.4375 5.375 3.6556 4.2917 7.6204 8.2262 11.625 12.188 4.5175 4.4731 8.9256 8.9528 13.031 13.812 1.5814 1.8169 3.2507 3.4996 4.9688 5.1875 4.9039 4.8266 9.4204 9.9581 13.5 15.5-1.3419 3.0835-2.7024 4.8516-5.3438 6.918-0.66451 0.52771-1.329 1.0554-2.0137 1.5991-0.70705 0.55124-1.4141 1.1025-2.1426 1.6704-1.4599 1.1607-2.9183 2.3235-4.375 3.4883-0.70898 0.5667-1.418 1.1334-2.1484 1.7173-3.3905 2.7565-6.6113 5.6871-9.8281 8.6421-1.9734 1.8048-3.9871 3.5444-6.0234 5.2773-7.6314 6.6562-14.823 13.946-21.375 21.664-2.061 2.3831-4.2208 4.6617-6.375 6.9609-6.0888 6.6726-11.473 13.851-16.882 21.078-1.2976 1.7254-2.6142 3.4366-3.9341 5.145-6.373 8.2883-12.036 16.972-17.559 25.84-0.52143 0.83322-1.0429 1.6664-1.5801 2.5249-17.559 28.256-30.486 59.445-39.42 91.475-0.34418 1.1795-0.68836 2.359-1.043 3.5742-7.8536 27.816-13.549 57.541-14.957 86.426-3.0373-1.3661-5.2092-2.9307-7.6094-5.2305-1.0093-0.9581-1.0093-0.9581-2.0391-1.9355-0.69352-0.66709-1.387-1.3342-2.1016-2.0215-4.7136-4.503-9.4667-8.9221-14.392-13.193-5.0647-4.4145-9.9381-9.0451-14.858-13.619-0.6075-0.56389-1.215-1.1278-1.8409-1.7088-11.134-10.349-21.985-20.96-32.72-31.721-2.5932-2.5987-5.1919-5.1919-7.791-7.7847-1.6774-1.6781-3.3545-3.3564-5.0312-5.0352-1.1454-1.1424-1.1454-1.1424-2.314-2.3079-4.108-4.1259-8.0512-8.3369-11.84-12.759-1.8863-2.1701-3.9002-4.1819-5.9633-6.1835-3.3329-3.2937-6.4619-6.6759-9.5117-10.23-2.4804-2.8313-5.0474-5.5786-7.6133-8.332-5.0333-5.4147-9.9058-10.953-14.725-16.559-3.0389-3.5326-6.1206-7.0111-9.2754-10.441-4.9007-5.4166-9.3621-11.158-13.826-16.934-2.2448-2.9034-4.4995-5.799-6.7534-8.6953-1.1968-1.5384-2.3927-3.0775-3.5879-4.6172-2.7518-3.5439-5.5102-7.0818-8.2979-10.598-4.7309-5.9692-9.3391-11.959-13.57-18.301-1.2293-1.9247-1.2293-1.9247-3.3398-2.793 7.5142 25.56 7.5142 25.56 18 50 0.33822 0.68449 0.67644 1.369 1.0249 2.0742 8.8484 17.82 19.729 34.274 31.975 49.926 0.7077 0.91008 1.4154 1.8202 2.1445 2.7578 7.4911 9.4898 15.364 18.676 23.508 27.609 1.6948 1.9007 3.3471 3.8107 4.9766 5.7656 6.4111 7.6736 13.167 14.84 20.32 21.83 3.9929 3.9133 7.7625 7.9247 11.409 12.162 2.4157 2.7595 4.9743 5.3573 7.5789 7.9375 0.51506 0.51313 1.0301 1.0263 1.5608 1.5549 3.4437 3.405 6.9736 6.671 10.685 9.7849 2.3835 2.0965 4.5857 4.3386 6.8164 6.5977 2.6013 2.6279 5.2065 5.2518 7.8125 7.875 0.67354 0.68191 1.3471 1.3638 2.041 2.0664 4.5463 4.5681 9.2639 8.8546 14.146 13.059 1.5453 1.3918 3.0876 2.787 4.625 4.1875 9.5258 8.5879 19.278 16.903 29.375 24.812-1.3095 3.9286-2.9337 4.5457-6.375 6.8125-5.6388 3.7901-11.159 7.715-16.625 11.75-1.1962 0.88184-1.1962 0.88184-2.4165 1.7815-5.2561 3.8915-10.457 7.85-15.641 11.836-7.3694 5.6653-14.749 11.171-22.546 16.232-6.7605 4.4133-13.152 9.3049-19.57 14.197-2.5984 1.9774-5.2123 3.9338-7.8267 5.8901-3.2116 2.4076-6.4218 4.8169-9.6289 7.2305-8.1237 6.1089-16.285 12.163-24.483 18.172-5.8349 4.2882-11.561 8.6948-17.224 13.207-2.5292 1.7949-4.7836 2.8021-7.6641 3.8906-0.53687-5.7532-1.0696-11.507-1.5991-17.261-0.1793-1.9428-0.35959-3.8855-0.54102-5.8281-0.65029-6.9679-1.2639-13.938-1.8599-20.911-0.09394-1.0686-0.18788-2.1371-0.28467-3.2381-1.5669-18.121-2.0337-36.118-1.9761-54.291 0.011458-3.6367 0.0045683-7.273-0.0068846-10.91-0.050328-18.866 0.30449-37.558 3.5801-56.186 0.27586-4.1575 0.049679-5.8317-2.2812-9.3281-2.3991-2.5783-4.873-4.998-7.4243-7.4204-2.7962-2.8302-5.1259-5.9907-7.4819-9.189-0.49524-0.66902-0.99048-1.338-1.5007-2.0273-5.5289-7.5456-10.799-15.271-16.022-23.03-1.563-2.3216-3.1333-4.6382-4.7041-6.9546-5.0036-7.4078-9.8897-14.881-14.586-22.488-0.45593-0.73356-0.91185-1.4671-1.3816-2.2229-2.298-3.7685-4.3655-7.5363-6.1965-11.554-0.55168-1.1726-0.55168-1.1726-1.1145-2.3689-0.68194-1.4777-1.327-2.9733-1.9253-4.4868-1.0306-2.2165-1.88-3.6568-3.6946-5.3044-2.8539-0.87491-5.5833-1.2064-8.55-1.5322-5.7045-0.77347-11.085-2.6671-16.544-4.4355-2.0863-0.67538-4.1757-1.3399-6.2663-2.0018-4.2154-1.3361-8.4274-2.6828-12.639-4.0305-15.883-5.0745-31.67-9.5965-48-13-3.2191 8.8102-4.6423 16.762-1.5 25.875 2.3126 6.8932 3.0967 14.848 0.51562 21.762-2.9512 5.0735-2.9512 5.0735-6.125 5.9375-0.62391 0.14051-1.2478 0.28102-1.8906 0.42578-4.7469 9.4938-0.75039 26.273 2.2891 35.992 2.2601 6.383 5.2572 12.861 9.4258 18.207 1.2852 1.8008 1.2852 1.8008 1.2852 4.8008-9.9293 1.1984-18.155-3.3136-25.875-9.1875-2.4856-2.1825-4.8199-4.4411-7.125-6.8125l-1.9219-1.8594c-8.6172-8.9222-16.908-26.008-17.641-38.516 0.8704-5.6092 2.2707-9.718 6.7266-13.426 7.8656-5.3676 14.375-5.9331 23.836-5.1992 5.6777 1.3885 10.433 3.3278 15 7-0.2893-4.8216-1.0443-8.1356-4.457-11.711-6.8445-5.7182-16.226-4.9236-24.642-4.4619-5.9398 0.54012-9.9164 2.7286-13.901 7.1729h-2v-22c-8.2874 9.4713-11.875 16.866-11.539 29.477 0.87537 5.7216 2.9918 10.875 5.2266 16.188 1.3125 3.3359 1.3125 3.3359 1.3125 6.3359h-2l-2-3.125c-3.6054-5.2793-9.3035-8.9071-15.477-10.523-7.3351-1.0219-14.062-1.2282-20.523 2.6484-4.81 4.4894-6.0433 8.5744-7 15-3.8416-2.5611-4.2466-4.2972-5.4141-8.6406-2.3779-13.634-0.87332-25.121 5.4141-37.359 0.29439-0.5912 0.58878-1.1824 0.89209-1.7915 4.4452-8.835 10.058-16.188 16.624-23.543 2.5877-2.9036 5.1316-5.8446 7.6714-8.79 0.50668-0.5862 1.0134-1.1724 1.5354-1.7764 3-3.5039 5.7921-7.0839 8.4646-10.849 14.099-19.699 30.849-23.866 53.5-28.812 8.0175-1.7584 15.992-3.5707 23.898-5.7878 3.4483-0.9277 6.9062-1.6095 10.415-2.2747 5.0592-0.96219 5.0592-0.96219 10-2.375 1.8947-0.06855 3.7917-0.084804 5.6875-0.0625 0.99387 0.0090234 1.9877 0.018047 3.0117 0.027344 0.75926 0.011602 1.5185 0.023203 2.3008 0.035156-0.21616-0.60658-0.43232-1.2132-0.65503-1.8381-11.395-32.273-16.744-63.123-8.5325-96.974 0.267-1.1284 0.53399-2.2568 0.80908-3.4194 1.9786-8.2963 4.0747-16.556 6.3784-24.768h2c0.27393 0.53295 0.54785 1.0659 0.83008 1.615 3.3448 6.2823 7.3109 11.834 11.67 17.448 0.70343 0.91322 1.4069 1.8264 2.1316 2.7673 9.1972 11.894 18.51 23.594 28.833 34.537 1.6892 1.7961 3.3645 3.6047 5.0396 5.4141 7.6811 8.2657 15.529 16.353 23.496 24.344 0.87189 0.87648 1.7438 1.753 2.6421 2.656 4.4248 4.4142 8.907 8.6892 13.667 12.742 1.6914 1.4771 1.6914 1.4771 3.1641 3.2314 1.4524 1.4704 1.4524 1.4704 3.4832 1.1355 4.0187-1.7494 6.8033-5.1375 9.8567-8.2024 0.70576-0.6774 1.4115-1.3548 2.1387-2.0527 0.66193-0.65936 1.3239-1.3187 2.0059-1.998 0.91229-0.90166 0.91229-0.90166 1.843-1.8215 1.4345-1.7513 1.4345-1.7513 0.97437-3.9377-0.937-2.2716-2.0609-3.4948-3.8369-5.1899-0.54785-0.53238-1.0957-1.0648-1.6602-1.6133-1.255-1.143-2.5181-2.278-3.8137-3.3748-6.5495-5.5765-12.578-11.663-18.646-17.751-1.8764-1.8818-3.7581-3.7581-5.6404-5.634-5.422-5.419-10.804-10.822-15.774-16.666-2.1808-2.5616-4.4856-4.9995-6.7786-7.4612-5.1167-5.5407-9.9132-11.298-14.625-17.188-0.60844-0.73992-1.2169-1.4798-1.8438-2.2422-6.5027-7.9631-12.512-16.301-18.576-24.599-1.297-1.772-2.6016-3.5384-3.9082-5.3032-9.1554-12.412-17.33-25.402-25.298-38.597-1.3141-2.161-2.6463-4.3094-3.9868-6.4541-7.6262-12.24-14.576-24.835-21.538-37.461-2.7787-5.0247-5.5882-10.032-8.4116-15.031-0.51998-0.92087-1.04-1.8417-1.5757-2.7905-4.616-8.1437-9.3369-16.226-14.106-24.281-3.0974-5.2624-6.004-10.562-8.6829-16.051-1.5577-3.1814-3.1649-6.2019-5.0728-9.1909-3.2034-1.0678-6.0828-1.4193-9.4375-1.8125-6.0061-0.74746-11.891-1.8173-17.812-3.0625-9.1167-1.8997-18.272-3.3048-27.489-4.6245-7.3392-1.0543-14.644-2.2307-21.949-3.5005-9.6999-1.6598-19.427-3.0061-29.188-4.25-0.68259-0.088945-1.3652-0.17789-2.0685-0.26953-1.9737-0.2557-3.9487-0.50102-5.9237-0.74609-1.7033-0.21318-1.7033-0.21318-3.4409-0.43066-8.2759-0.68081-16.438-0.20362-24.7 0.46582-1.0314 0.080763-2.0627 0.16153-3.1253 0.24474-3.3309 0.26221-6.6614 0.53027-9.9919 0.79823-2.312 0.18217-4.624 0.36414-6.936 0.5459-11.173 0.88614-22.332 1.8441-33.48 2.9978-11.382 1.1692-22.705 1.9826-34.146 2.1438-1.7284 0.045923-1.7284 0.045923-3.4917 0.092773-15.35 0.0044982-27.534-7.226-38.571-17.343-7.7088-7.7088-14.629-16.895-20.25-26.25v-3c3.6451-0.96112 7.2912-1.9184 10.938-2.875 1.0216-0.26941 2.0432-0.53883 3.0957-0.81641 15.578-4.0813 30.629-6.6623 46.768-6.5693 2.1694 0.010599 4.3379 9.755e-5 6.5073-0.012695 21.996-0.028261 43.808 3.1779 65.588 5.9444 2.8015 0.35495 5.6035 0.70622 8.4055 1.0574 13.452 1.6865 26.898 3.4044 40.326 5.2754 5.1339 0.71039 10.266 1.3228 15.419 1.8752 11.507 1.2804 22.9 3.3933 34.302 5.3796 3.9062 0.67979 7.8138 1.3508 11.722 2.0208 2.5235 0.43633 5.047 0.87316 7.5703 1.3105 1.1483 0.19698 2.2965 0.39396 3.4796 0.59691 7.6951 1.3473 15.279 3.0126 22.88 4.8132 37.972 9.6871 37.972 9.6871 76 5 1.4347-0.52787 1.4347-0.52787 2.8984-1.0664 16.594-6.4628 29.288-16.911 42.102-28.934 0.66129-0.58395 1.3226-1.1679 2.0039-1.7695 5.1472-4.7173 8.5457-10.513 12.176-16.414 0.90105-1.3941 0.90105-1.3941 1.8203-2.8164h1c0.2806 26.961-0.31388 53.786-1.7266 80.71-0.21764 4.1581-0.41667 8.3168-0.6062 12.476-1.0402 22.703-3.1201 45.232-5.6672 67.813-0.091705 0.81704-0.18341 1.6341-0.27789 2.4759-0.62596 5.5718-1.2627 11.142-1.9096 16.712-0.084494 0.73027-0.16899 1.4605-0.25604 2.213-0.23826 2.0479-0.48051 4.0953-0.72443 6.1425-0.13688 1.1552-0.27376 2.3105-0.41479 3.5007-0.41724 2.9563-0.41724 2.9563-0.96924 4.8599-1.0817 5.062-1.0723 8.7906 1.1375 13.413 0.73235 1.0712 1.4647 2.1424 2.2192 3.2461 0.39511 0.58971 0.79022 1.1794 1.1973 1.787 1.2746 1.8952 2.5735 3.7723 3.873 5.6505 0.87964 1.3001 1.7572 2.6015 2.6328 3.9043 1.716 2.5519 3.439 5.0988 5.167 7.6426 2.8782 4.2538 5.6286 8.5822 8.3252 12.953 0.37753 0.60844 0.75507 1.2169 1.144 1.8438 1.98 3.202 3.9261 6.4238 5.856 9.6562 0.019819-0.56469 0.039639-1.1294 0.060059-1.7112 0.44016-12.197 1.049-24.37 1.8774-36.547 1.1145-16.842 1.9961-33.69 2.6875-50.555 0.032705-0.79032 0.06541-1.5806 0.099106-2.3949 1.3887-33.905 1.5499-67.801 1.5259-101.73-6.0047e-4 -1.8531-6.0047e-4 -1.8531-0.0012131-3.7437-0.012501-71.935-0.012501-71.935-8.2488-143.32-0.17273 0.87656-0.34547 1.7531-0.52344 2.6562-4.9939 22.541-15.156 45.179-29.477 63.344-0.73348 0.93715-1.467 1.8743-2.2227 2.8398-7.9598 9.9531-16.364 17.792-26.777 25.16-0.87527 0.63164-1.7505 1.2633-2.6523 1.9141-19.263 13.151-42.179 14.766-64.766 10.992-17.921-3.4364-35.555-8.4171-52.945-13.906-16.767-5.239-28.84-5.8436-46.102-2.4399-16.433 3.0944-32.432 1.4873-48.823-1.1279-2.748-0.43789-5.4988-0.85323-8.251-1.2642-1.7371-0.26327-3.4741-0.52754-5.2109-0.79297-0.80454-0.12286-1.6091-0.24573-2.438-0.37231-5.5747-0.88403-5.5747-0.88403-7.812-2.0027-2.6649-0.47544-5.3241-0.90847-8-1.3125-1.7253-0.26424-3.4505-0.52857-5.1758-0.79297-0.93409-0.14228-1.8682-0.28456-2.8306-0.43115-3.1607-0.48923-6.3174-1.0001-9.4741-1.5142-16.528-2.7109-16.528-2.7109-33.217-3.8936-1.71-0.041337-3.4197-0.099277-5.1289-0.16602-25.41-0.94435-51.685 2.1069-75.186 12.376-1.9883 0.73438-1.9883 0.73438-4.9883 0.73438-2.0771-10.318-2.3409-20.393-2.3157-30.881 0.0031446-2.7184-0.020326-5.4356-0.045654-8.1538-0.053715-15.11 1.0094-30.685 6.3613-44.965 0.32484-0.89074 0.64969-1.7815 0.98438-2.6992 11.935-30.613 34.142-55.255 64.203-68.676 5.9436-2.3898 11.986-4.4697 18.086-6.4219 2.3275-0.75145 4.6471-1.5286 6.9531-2.3438 18.698-6.5684 38.148-11.283 57.568-15.139 6.3439-1.2767 12.49-2.8562 18.67-4.7649 6.3779-1.9571 12.817-3.6333 19.285-5.2681 1.0371-0.26676 2.0741-0.53351 3.1426-0.80835 1.4686-0.3675 1.4686-0.3675 2.9668-0.74243 0.87108-0.21954 1.7422-0.43909 2.6396-0.66528 2.5595-0.48247 4.9028-0.55616 7.501-0.47144 0.11215-0.72445 0.2243-1.4489 0.33984-2.1953 2.2843-9.7049 9.3426-16.126 17.207-21.566 9.7968-5.805 20.83-5.8918 31.73-3.3242 2.5324 0.65961 4.9924 1.4122 7.4883 2.2109 6.2216 1.6831 10.278 0.7633 16.172-1.6875 0.65331-0.26958 1.3066-0.53915 1.9797-0.81689 4.4836-1.8743 8.8803-3.9108 13.27-5.9956 5.9494-2.8239 11.968-5.4414 18.062-7.9375 1.205-0.50636 1.205-0.50636 2.4343-1.0229 11.524-4.6472 22.756-4.9345 35.003-4.7896 1.4915 0.010057 2.9831 0.019178 4.4746 0.027344 3.6128 0.021781 7.2253 0.056158 10.838 0.097656 0.45137-1.161 0.45137-1.161 0.91187-2.3455 6.9426-16.937 24.67-38.376 40.088-48.655v-2c-0.82371-0.39188-1.6474-0.78375-2.4961-1.1875-12.273-6.3483-23.324-14.521-33.504-23.812-1.2704-1.1292-1.2704-1.1292-2.5664-2.2812-8.0704-7.5652-14.281-16.584-20.434-25.719-0.41057-0.60328-0.82113-1.2066-1.2441-1.8281-11.402-17.093-16.131-38.403-16.126-58.697-0.0043974-2.0387-0.040926-4.0752-0.078613-6.1135-0.031658-10.78 1.6583-18.815 8.8867-26.986 4.2527-3.7424 8.3824-3.8636 13.867-3.7539 4.3506 0.6116 5.8198 2.0721 8.6953 5.3789 3.3693 5.3382 3.5774 10.247 3.9375 16.375 2.2135 29.238 13.995 52.774 35.938 71.938 9.5314 7.6128 19.733 12.771 31 17.25 0.8797 0.35917 1.7594 0.71833 2.6658 1.0884 7.1104 2.6991 12.143 2.9329 19.248-0.18213 1.2863-0.64102 2.5649-1.2979 3.8359-1.9688 0.68659-0.3553 1.3732-0.7106 2.0806-1.0767 19.87-10.472 34.45-23.239 42.267-45.033 4.5643-15.064 5.232-30.222 5.2148-45.828 3.9276e-4 -0.75841 7.8552e-4 -1.5168 0.0011902-2.2982-0.0098078-15.93-0.42866-32.012-2.6965-47.799-0.71488-5.0325-1.0499-10.085-1.4297-15.152-0.54768-7.1618-1.1395-14.309-1.9177-21.449-2.8289-26.09-2.8289-26.09 1.5818-33.285 3.5839-4.4414 8.0829-8.1636 13.859-8.9141 6.0179-0.084285 9.7591 0.12429 14.414 4.3359 7.062 7.5547 8.6793 14.561 10.188 24.5 0.31466 1.9695 0.62942 3.9391 0.94658 5.9082 0.23238 1.4432 0.46372 2.8865 0.69412 4.33 1.5028 9.3958 3.098 18.776 4.712 28.153 0.51149 2.9833 1.0144 5.9679 1.5172 8.9526 3.295 25.605 3.295 25.605 17.212 45.973 0.57105 0.39059 1.1421 0.78117 1.7305 1.1836l2.625 1.875c7.9107 2.6369 16.424 1.9939 23.969-1.4844 30.452-17.599 43.494-57.967 52.04-89.746 3.9849-15.511 6.1685-31.597 7.9214-47.497 0.14695-1.3071 0.29391-2.6142 0.44531-3.9609 0.10312-1.0789 0.20625-2.1579 0.3125-3.2695 1.1868-5.0371 3.9781-8.971 8.3125-11.793 5.3966-3.0995 10.658-3.186 16.578-1.4961zm-359.86 404.38c3.7006 1.3803 5.7401 3.9267 8.2227 6.8672 4.3097 4.9967 4.3097 4.9967 9.4375 9.125-1.4088 3.3088-3.0375 5.1147-5.8125 7.375-2.6055 2.1941-4.9254 4.3462-7.0625 7-2.125 2.625-2.125 2.625-4.125 3.625-5.6246 0.37592-10.147-0.65073-15.438-2.3125-0.71221-0.21334-1.4244-0.42668-2.1582-0.64648-3.6249-1.1029-7.1816-2.3125-10.721-3.666-3.2865-1.2268-6.2162-1.9416-9.6836-2.375 1.0985-3.2954 1.6085-3.7199 4.3242-5.6367 1.0391-0.73694 1.0391-0.73694 2.0991-1.4888 1.1208-0.7732 1.1208-0.7732 2.2642-1.562 0.76006-0.53093 1.5201-1.0619 2.3032-1.6089 5.9074-4.0717 11.968-7.7247 18.251-11.18 6.3746-3.5214 6.3746-3.5214 8.0977-3.5156zm-236.34 58.992c4.0418 0.30592 7.3879 2.85 10.75 4.9375 0.60199 0.36029 1.204 0.72059 1.8242 1.0918 1.513 0.93149 2.9747 1.9453 4.4258 2.9707v2c-1.2965 0.92873-2.6416 1.7894-4 2.625-5.4123 3.6549-9.9035 7.9985-14.5 12.625-0.70641 0.70979-1.4128 1.4196-2.1406 2.1509-2.7378 2.7876-5.1851 5.3377-7.3594 8.5991-3 0-3 0-4.7539-1.6797-0.59684-0.72445-1.1937-1.4489-1.8086-2.1953-0.59941-0.7193-1.1988-1.4386-1.8164-2.1797-0.53496-0.64195-1.0699-1.2839-1.6211-1.9453l-2-2c0.35435-3.0663 1.4607-4.8962 3.4414-7.207 0.49774-0.58362 0.99548-1.1672 1.5083-1.7686 0.53222-0.60618 1.0644-1.2124 1.6128-1.8369 0.53996-0.62294 1.0799-1.2459 1.6362-1.8877 3.961-4.5043 8.1393-8.5224 12.801-12.3l2-2z" fill-rule="evenodd" fill="#1a365d"/>
<path transform="translate(330.06 76)" d="m0 0c4.0645 2.7673 6.7501 5.5586 8.9375 10 0.75547 4.6196 0.58148 9.13 0.41016 13.797-0.023995 1.3563-0.044471 2.7127-0.061661 4.0692-0.061384 4.2957-0.17085 8.5894-0.286 12.884-1.0334 39.164 3.3077 81.71 29.32 113.17 1.6172 2.082 1.6172 2.082 1.6172 4.082h3c0.09668-0.65098 0.19336-1.302 0.29297-1.9727 3.4114-14.607 11.849-28.23 19.121-41.172 1.6251-2.925 3.2068-5.8699 4.7778-8.8242 0.52304-0.97864 1.0461-1.9573 1.585-2.9656 0.98945-1.8539 1.9736-3.7106 2.9512-5.5708 4.6017-8.5573 10.276-17.997 19.272-22.495 4.6189-0.56351 8.0984-0.44229 12.312 1.625 3.6403 3.217 6.2101 5.7427 7.1055 10.68 0.63817 11.625-4.7033 22.431-9.6128 32.658-9.1286 19.208-20.18 44.55-12.68 65.787 5.0001 11.639 11.644 17.722 23.348 22.738 9.0544 3.4682 18.425 5.873 27.777 8.3867 24.924 6.7102 51.846 15.234 67.312 37.562 1.4375 2.5625 1.4375 2.5625 1.4375 4.5625-1.2697 0.23074-2.5395 0.46148-3.8477 0.69922-15.332 2.8664-29.015 6.5289-42.52 14.53-5.0831 2.9087-5.0831 2.9087-7.886 2.2043-0.57621-0.47309-1.1524-0.94617-1.7461-1.4336-0.61359-0.45117-1.2272-0.90234-1.8594-1.3672-1.2515-0.99811-2.5015-1.9981-3.75-3-18.429-12.587-43.276-15.455-64.772-19.401-33.484-6.1641-67.544-13.708-97.619-30.232-1.3802-0.73962-2.7604-1.4792-4.1406-2.2188-30.076-16.319-53.429-42.444-63.66-75.449-0.40681-1.442-0.80599-2.8862-1.1992-4.332-0.3449-1.2638-0.3449-1.2638-0.69678-2.5532-3.1958-12.175-4.7763-23.974-4.8657-36.572-0.014583-1.1913-0.029165-2.3827-0.044189-3.6101 0.090582-7.6402 0.82149-11.453 6.2395-16.909 4.3428-3.3992 6.6402-4.7371 12.277-4.625 4.1359 0.53342 6.7249 2.656 9.366 5.7781 4.3486 6.2802 5.2315 12.864 6.3489 20.304 1.8047 11.42 3.7845 22.409 8.5625 33 0.30261 0.6745 0.60521 1.349 0.91699 2.0439 9.5523 20.874 22.067 35.015 42.708 45.581 1.0229 0.54076 2.0457 1.0815 3.0996 1.6387 5.7297 3.0946 5.7297 3.0946 12.088 3.9238-0.4125-0.49887-0.825-0.99773-1.25-1.5117-10.97-13.639-18.792-29.18-25.562-45.238-0.27787-0.64808-0.55575-1.2962-0.84204-1.9639-4.1413-10.104-5.9845-20.971-7.9705-31.661-0.21656-1.1163-0.43312-2.2327-0.65625-3.3828-2.5112-13.455-2.8961-26.847-2.8438-40.492 0.0015509-0.72101 0.0031018-1.442 0.0046997-2.1849 0.11595-46.017 0.11595-46.017 8.5383-56.296 5.8821-5.1563 12.153-6.7159 19.645-4.2695z" fill="#1a365d"/>
<path transform="translate(453,1097)" d="m0 0c2.3516 1.6367 2.3516 1.6367 4 3-0.61278 2.9618-1.2537 4.3806-3 7-2.0167 17.024 2.6487 35.121 13.078 48.707 1.1861 1.338 2.4048 2.6487 3.6719 3.9102 1.25 1.3828 1.25 1.3828 1.25 3.3828-16.334-0.31857-27.695-7.0608-38.832-18.523-10.038-11.466-15.758-25.376-15.645-40.625 0.53943-3.2277 1.1904-4.3203 3.6016-6.4766 10.201-6.9228 21.071-5.1117 31.875-0.375z" fill="#1a365d"/>
</svg>
